<mxfile host="app.diagrams.net" modified="2024-03-20T09:13:37.086Z" agent="Mozilla/5.0 (Windows NT 10.0; Win64; x64; rv:123.0) Gecko/20100101 Firefox/123.0" etag="H0LhVU0BCZoY2EBcd11k" version="24.0.7" type="github">
  <diagram name="第 1 页" id="B3CuJUwN9KRo6f4JZB9l">
    <mxGraphModel dx="1434" dy="746" grid="1" gridSize="10" guides="1" tooltips="1" connect="1" arrows="1" fold="1" page="1" pageScale="1" pageWidth="827" pageHeight="1169" math="0" shadow="0">
      <root>
        <mxCell id="0" />
        <mxCell id="1" parent="0" />
        <mxCell id="L37EZ8QIMZ9yyhZuyT8S-2" value="" style="shape=curlyBracket;whiteSpace=wrap;html=1;rounded=1;labelPosition=left;verticalLabelPosition=middle;align=right;verticalAlign=middle;size=0.3333333333333333;" vertex="1" parent="1">
          <mxGeometry x="220" y="195" width="30" height="270" as="geometry" />
        </mxCell>
        <mxCell id="L37EZ8QIMZ9yyhZuyT8S-3" value="结清本期还款的金额" style="ellipse;whiteSpace=wrap;html=1;fillColor=#d5e8d4;strokeColor=#82b366;" vertex="1" parent="1">
          <mxGeometry x="90" y="290" width="120" height="80" as="geometry" />
        </mxCell>
        <mxCell id="L37EZ8QIMZ9yyhZuyT8S-4" value="本金" style="rounded=0;whiteSpace=wrap;html=1;" vertex="1" parent="1">
          <mxGeometry x="280" y="180" width="120" height="60" as="geometry" />
        </mxCell>
        <mxCell id="L37EZ8QIMZ9yyhZuyT8S-5" value="利息" style="rounded=0;whiteSpace=wrap;html=1;" vertex="1" parent="1">
          <mxGeometry x="280" y="270" width="120" height="60" as="geometry" />
        </mxCell>
        <mxCell id="L37EZ8QIMZ9yyhZuyT8S-8" style="edgeStyle=orthogonalEdgeStyle;rounded=0;orthogonalLoop=1;jettySize=auto;html=1;exitX=1;exitY=0.5;exitDx=0;exitDy=0;entryX=0;entryY=0.5;entryDx=0;entryDy=0;" edge="1" parent="1" source="L37EZ8QIMZ9yyhZuyT8S-6" target="L37EZ8QIMZ9yyhZuyT8S-9">
          <mxGeometry relative="1" as="geometry">
            <mxPoint x="440" y="460" as="targetPoint" />
          </mxGeometry>
        </mxCell>
        <mxCell id="L37EZ8QIMZ9yyhZuyT8S-6" value="罚息" style="rounded=0;whiteSpace=wrap;html=1;fillColor=#ffe6cc;strokeColor=#d79b00;" vertex="1" parent="1">
          <mxGeometry x="280" y="430" width="120" height="60" as="geometry" />
        </mxCell>
        <mxCell id="L37EZ8QIMZ9yyhZuyT8S-7" value="转结" style="rounded=0;whiteSpace=wrap;html=1;" vertex="1" parent="1">
          <mxGeometry x="280" y="350" width="120" height="60" as="geometry" />
        </mxCell>
        <mxCell id="L37EZ8QIMZ9yyhZuyT8S-24" style="edgeStyle=orthogonalEdgeStyle;rounded=0;orthogonalLoop=1;jettySize=auto;html=1;exitX=1;exitY=0.5;exitDx=0;exitDy=0;entryX=0;entryY=0.5;entryDx=0;entryDy=0;" edge="1" parent="1" source="L37EZ8QIMZ9yyhZuyT8S-9" target="L37EZ8QIMZ9yyhZuyT8S-26">
          <mxGeometry relative="1" as="geometry">
            <mxPoint x="670" y="460" as="targetPoint" />
          </mxGeometry>
        </mxCell>
        <mxCell id="L37EZ8QIMZ9yyhZuyT8S-25" value="是" style="edgeLabel;html=1;align=center;verticalAlign=middle;resizable=0;points=[];" vertex="1" connectable="0" parent="L37EZ8QIMZ9yyhZuyT8S-24">
          <mxGeometry x="-0.0922" y="-2" relative="1" as="geometry">
            <mxPoint as="offset" />
          </mxGeometry>
        </mxCell>
        <mxCell id="L37EZ8QIMZ9yyhZuyT8S-30" style="edgeStyle=orthogonalEdgeStyle;rounded=0;orthogonalLoop=1;jettySize=auto;html=1;exitX=0.5;exitY=0;exitDx=0;exitDy=0;entryX=0.5;entryY=1;entryDx=0;entryDy=0;" edge="1" parent="1" source="L37EZ8QIMZ9yyhZuyT8S-9" target="L37EZ8QIMZ9yyhZuyT8S-29">
          <mxGeometry relative="1" as="geometry" />
        </mxCell>
        <mxCell id="L37EZ8QIMZ9yyhZuyT8S-31" value="否" style="edgeLabel;html=1;align=center;verticalAlign=middle;resizable=0;points=[];" vertex="1" connectable="0" parent="L37EZ8QIMZ9yyhZuyT8S-30">
          <mxGeometry x="-0.05" y="-1" relative="1" as="geometry">
            <mxPoint as="offset" />
          </mxGeometry>
        </mxCell>
        <mxCell id="L37EZ8QIMZ9yyhZuyT8S-9" value="&lt;div&gt;根据填写的日期判断&lt;/div&gt;&lt;div&gt;是否在还款期限内&lt;/div&gt;" style="rhombus;whiteSpace=wrap;html=1;" vertex="1" parent="1">
          <mxGeometry x="480" y="420" width="160" height="80" as="geometry" />
        </mxCell>
        <mxCell id="L37EZ8QIMZ9yyhZuyT8S-22" value="" style="shape=flexArrow;endArrow=classic;html=1;rounded=0;" edge="1" parent="1">
          <mxGeometry width="50" height="50" relative="1" as="geometry">
            <mxPoint x="559.5" y="510" as="sourcePoint" />
            <mxPoint x="559.5" y="550" as="targetPoint" />
            <Array as="points">
              <mxPoint x="559.5" y="550" />
            </Array>
          </mxGeometry>
        </mxCell>
        <mxCell id="L37EZ8QIMZ9yyhZuyT8S-23" value="&lt;div&gt;1.应还款日期 + 宽限天数&lt;/div&gt;&lt;div&gt;2.是否大于填写的日期&lt;/div&gt;&lt;div&gt;3.是: 在还款限期内&lt;/div&gt;&lt;div&gt;4.不在还款限期内&lt;br&gt;&lt;/div&gt;" style="shape=document;whiteSpace=wrap;html=1;boundedLbl=1;align=left;" vertex="1" parent="1">
          <mxGeometry x="485" y="560" width="150" height="130" as="geometry" />
        </mxCell>
        <mxCell id="L37EZ8QIMZ9yyhZuyT8S-26" value="罚息 = 0" style="rounded=0;whiteSpace=wrap;html=1;fillColor=#ffe6cc;strokeColor=#d79b00;" vertex="1" parent="1">
          <mxGeometry x="740" y="430" width="120" height="60" as="geometry" />
        </mxCell>
        <mxCell id="L37EZ8QIMZ9yyhZuyT8S-29" value="罚息 = （本金 + 转结）* 逾期的天数 * 罚息利率" style="rounded=0;whiteSpace=wrap;html=1;fillColor=#ffe6cc;strokeColor=#d79b00;" vertex="1" parent="1">
          <mxGeometry x="470" y="230" width="180" height="110" as="geometry" />
        </mxCell>
        <mxCell id="L37EZ8QIMZ9yyhZuyT8S-32" value="+" style="text;html=1;align=center;verticalAlign=middle;whiteSpace=wrap;rounded=0;" vertex="1" parent="1">
          <mxGeometry x="310" y="240" width="60" height="30" as="geometry" />
        </mxCell>
        <mxCell id="L37EZ8QIMZ9yyhZuyT8S-33" value="+" style="text;html=1;align=center;verticalAlign=middle;whiteSpace=wrap;rounded=0;" vertex="1" parent="1">
          <mxGeometry x="310" y="325" width="60" height="30" as="geometry" />
        </mxCell>
        <mxCell id="L37EZ8QIMZ9yyhZuyT8S-34" value="+" style="text;html=1;align=center;verticalAlign=middle;whiteSpace=wrap;rounded=0;" vertex="1" parent="1">
          <mxGeometry x="310" y="403" width="60" height="30" as="geometry" />
        </mxCell>
        <mxCell id="L37EZ8QIMZ9yyhZuyT8S-37" value="&lt;div&gt;例: orderId = 123, 期数 3&lt;/div&gt;&lt;div&gt;产品: 宽限天数1 ， 利率0.02&lt;br&gt;&lt;/div&gt;" style="rounded=0;whiteSpace=wrap;html=1;align=left;" vertex="1" parent="1">
          <mxGeometry x="30" y="743" width="200" height="60" as="geometry" />
        </mxCell>
        <mxCell id="L37EZ8QIMZ9yyhZuyT8S-38" value="金额" style="whiteSpace=wrap;html=1;" vertex="1" parent="1">
          <mxGeometry x="80" y="880" width="120" height="60" as="geometry" />
        </mxCell>
        <mxCell id="L37EZ8QIMZ9yyhZuyT8S-39" value="=" style="text;html=1;align=center;verticalAlign=middle;whiteSpace=wrap;rounded=0;" vertex="1" parent="1">
          <mxGeometry x="220" y="895" width="50" height="30" as="geometry" />
        </mxCell>
        <mxCell id="L37EZ8QIMZ9yyhZuyT8S-56" style="edgeStyle=orthogonalEdgeStyle;rounded=0;orthogonalLoop=1;jettySize=auto;html=1;entryX=0.5;entryY=0;entryDx=0;entryDy=0;" edge="1" parent="1" source="L37EZ8QIMZ9yyhZuyT8S-40" target="L37EZ8QIMZ9yyhZuyT8S-55">
          <mxGeometry relative="1" as="geometry" />
        </mxCell>
        <mxCell id="L37EZ8QIMZ9yyhZuyT8S-40" value="本金:1430.70" style="rounded=0;whiteSpace=wrap;html=1;" vertex="1" parent="1">
          <mxGeometry x="280" y="880" width="120" height="60" as="geometry" />
        </mxCell>
        <mxCell id="L37EZ8QIMZ9yyhZuyT8S-41" value="+" style="text;html=1;align=center;verticalAlign=middle;whiteSpace=wrap;rounded=0;" vertex="1" parent="1">
          <mxGeometry x="414" y="895" width="60" height="30" as="geometry" />
        </mxCell>
        <mxCell id="L37EZ8QIMZ9yyhZuyT8S-57" style="edgeStyle=orthogonalEdgeStyle;rounded=0;orthogonalLoop=1;jettySize=auto;html=1;exitX=0.5;exitY=1;exitDx=0;exitDy=0;entryX=1;entryY=0;entryDx=0;entryDy=0;" edge="1" parent="1" source="L37EZ8QIMZ9yyhZuyT8S-42" target="L37EZ8QIMZ9yyhZuyT8S-55">
          <mxGeometry relative="1" as="geometry" />
        </mxCell>
        <mxCell id="L37EZ8QIMZ9yyhZuyT8S-42" value="利息:281.78" style="rounded=0;whiteSpace=wrap;html=1;" vertex="1" parent="1">
          <mxGeometry x="470" y="880" width="120" height="60" as="geometry" />
        </mxCell>
        <mxCell id="L37EZ8QIMZ9yyhZuyT8S-43" value="+" style="text;html=1;align=center;verticalAlign=middle;whiteSpace=wrap;rounded=0;" vertex="1" parent="1">
          <mxGeometry x="590" y="895" width="60" height="30" as="geometry" />
        </mxCell>
        <mxCell id="L37EZ8QIMZ9yyhZuyT8S-58" style="edgeStyle=orthogonalEdgeStyle;rounded=0;orthogonalLoop=1;jettySize=auto;html=1;entryX=1;entryY=0.5;entryDx=0;entryDy=0;" edge="1" parent="1" source="L37EZ8QIMZ9yyhZuyT8S-47" target="L37EZ8QIMZ9yyhZuyT8S-55">
          <mxGeometry relative="1" as="geometry">
            <Array as="points">
              <mxPoint x="710" y="1090" />
              <mxPoint x="525" y="1090" />
              <mxPoint x="525" y="1160" />
            </Array>
          </mxGeometry>
        </mxCell>
        <mxCell id="L37EZ8QIMZ9yyhZuyT8S-47" value="转结:6543.51" style="rounded=0;whiteSpace=wrap;html=1;" vertex="1" parent="1">
          <mxGeometry x="650" y="880" width="120" height="60" as="geometry" />
        </mxCell>
        <mxCell id="L37EZ8QIMZ9yyhZuyT8S-48" value="+" style="text;html=1;align=center;verticalAlign=middle;whiteSpace=wrap;rounded=0;" vertex="1" parent="1">
          <mxGeometry x="770" y="895" width="60" height="30" as="geometry" />
        </mxCell>
        <mxCell id="L37EZ8QIMZ9yyhZuyT8S-50" style="edgeStyle=orthogonalEdgeStyle;rounded=0;orthogonalLoop=1;jettySize=auto;html=1;exitX=0.5;exitY=1;exitDx=0;exitDy=0;" edge="1" parent="1" source="L37EZ8QIMZ9yyhZuyT8S-49">
          <mxGeometry relative="1" as="geometry">
            <mxPoint x="887" y="1000" as="targetPoint" />
          </mxGeometry>
        </mxCell>
        <mxCell id="L37EZ8QIMZ9yyhZuyT8S-49" value="罚息" style="rounded=0;whiteSpace=wrap;html=1;fillColor=#ffe6cc;strokeColor=#d79b00;" vertex="1" parent="1">
          <mxGeometry x="827" y="880" width="120" height="60" as="geometry" />
        </mxCell>
        <mxCell id="L37EZ8QIMZ9yyhZuyT8S-52" style="edgeStyle=orthogonalEdgeStyle;rounded=0;orthogonalLoop=1;jettySize=auto;html=1;exitX=0.5;exitY=1;exitDx=0;exitDy=0;" edge="1" parent="1" source="L37EZ8QIMZ9yyhZuyT8S-51">
          <mxGeometry relative="1" as="geometry">
            <mxPoint x="887" y="1100" as="targetPoint" />
          </mxGeometry>
        </mxCell>
        <mxCell id="L37EZ8QIMZ9yyhZuyT8S-51" value="&lt;div&gt;应还日期:2024-03-18&lt;/div&gt;&lt;div&gt;填写日期:2024-03-20&lt;/div&gt;&lt;div&gt;逾期一天&lt;br&gt;&lt;/div&gt;" style="rounded=0;whiteSpace=wrap;html=1;align=left;" vertex="1" parent="1">
          <mxGeometry x="827" y="1000" width="120" height="60" as="geometry" />
        </mxCell>
        <mxCell id="L37EZ8QIMZ9yyhZuyT8S-59" style="edgeStyle=orthogonalEdgeStyle;rounded=0;orthogonalLoop=1;jettySize=auto;html=1;exitX=0.5;exitY=1;exitDx=0;exitDy=0;entryX=0.5;entryY=1;entryDx=0;entryDy=0;" edge="1" parent="1" source="L37EZ8QIMZ9yyhZuyT8S-53" target="L37EZ8QIMZ9yyhZuyT8S-55">
          <mxGeometry relative="1" as="geometry" />
        </mxCell>
        <mxCell id="L37EZ8QIMZ9yyhZuyT8S-53" value="计算利息= (1430.70+6543.51) * 0.02* 1 = 159.48" style="rounded=0;whiteSpace=wrap;html=1;" vertex="1" parent="1">
          <mxGeometry x="827" y="1100" width="120" height="60" as="geometry" />
        </mxCell>
        <mxCell id="L37EZ8QIMZ9yyhZuyT8S-55" value="1430.70+ 280.78+ 6543.51 + 159.48 = 8414.47" style="rounded=1;whiteSpace=wrap;html=1;" vertex="1" parent="1">
          <mxGeometry x="110" y="1130" width="290" height="60" as="geometry" />
        </mxCell>
      </root>
    </mxGraphModel>
  </diagram>
</mxfile>
